<svg width="63" height="63" viewBox="0 0 63 63" fill="none" xmlns="http://www.w3.org/2000/svg">
<rect width="63" height="63" rx="11.7802" fill="#001AA3"/>
<path d="M21.451 24.689C21.451 27.9786 18.7865 30.6441 15.5012 30.6441C12.216 30.6441 9.55146 27.9786 9.55146 24.689C9.55146 22.971 10.2685 20.2714 11.4703 17.996C12.0667 16.867 12.7529 15.9 13.4754 15.2284C14.2017 14.5533 14.8844 14.2474 15.5012 14.2474C16.1181 14.2474 16.8008 14.5533 17.5271 15.2284C18.2496 15.9 18.9358 16.867 19.5321 17.996C20.734 20.2714 21.451 22.971 21.451 24.689Z" fill="#FAFAFA" stroke="#FAFAFA" stroke-width="1.98989"/>
<path d="M32.311 17.0518C33.4381 17.0518 34.3773 17.1269 35.1287 17.2772C35.8801 17.4181 36.5187 17.6716 37.0447 18.0379C37.5801 18.4042 37.9652 18.8973 38.2 19.5172C38.4348 20.1371 38.5522 20.9167 38.5522 21.8559V30.5203C38.5522 30.7457 38.4864 30.9289 38.3549 31.0698C38.2234 31.2106 38.0544 31.2811 37.8477 31.2811H37.3124C37.1152 31.2811 36.9508 31.2153 36.8193 31.0838C36.6878 30.943 36.6033 30.7551 36.5657 30.5203L36.3685 29.2664V29.1396C35.8331 29.9286 35.0817 30.5438 34.1143 30.9852C33.1469 31.4173 32.0762 31.6333 30.9022 31.6333H30.4091C28.8781 31.6333 27.7041 31.2623 26.8869 30.5203C26.0698 29.7783 25.6613 28.7029 25.6613 27.2941C25.6613 25.9791 26.0135 24.9366 26.7179 24.1664C27.4317 23.3869 28.5118 22.9971 29.9582 22.9971H36.3826V22.2927C36.3826 21.0529 36.0867 20.2123 35.495 19.7708C34.9127 19.32 33.7621 19.0946 32.0433 19.0946C31.6207 19.0946 31.2074 19.1087 30.8035 19.1368C30.4091 19.1556 30.0615 19.1838 29.761 19.2214C29.4604 19.2589 29.2021 19.2965 28.9861 19.3341C28.7795 19.3623 28.5823 19.3951 28.3944 19.4327C28.2066 19.4703 28.0986 19.4891 28.0704 19.4891C27.845 19.5266 27.6618 19.4844 27.5209 19.3623C27.3894 19.2308 27.3237 19.057 27.3237 18.841V18.3197C27.3237 17.9065 27.798 17.5918 28.7466 17.3758C29.6952 17.1598 30.8834 17.0518 32.311 17.0518ZM36.3685 26.3642L36.3826 24.7581H30.395C28.6856 24.7581 27.8309 25.5659 27.8309 27.1813C27.8309 28.0642 28.0751 28.7123 28.5635 29.1255C29.0519 29.5294 29.7986 29.7314 30.8035 29.7314H31.3248C31.9729 29.7314 32.5834 29.675 33.1563 29.5623C33.7292 29.4402 34.2646 29.2523 34.7624 28.9988C35.2602 28.7452 35.65 28.3929 35.9317 27.9421C36.2229 27.4913 36.3685 26.9653 36.3685 26.3642Z" fill="#FAFAFA"/>
<path d="M48.6859 17.0942C49.5876 17.0942 50.3953 17.221 51.1091 17.4746C51.8324 17.7188 52.4288 18.0569 52.8984 18.4889C53.3774 18.921 53.7719 19.447 54.0818 20.0669C54.4011 20.6774 54.6266 21.3301 54.7581 22.0251C54.8989 22.7202 54.9694 23.4716 54.9694 24.2793C54.9694 29.1821 52.5274 31.6335 47.6434 31.6335C45.9528 31.6335 44.3467 31.347 42.8251 30.7741C42.0268 30.4641 41.6276 29.9053 41.6276 29.0975V14.0934C41.6276 13.5298 41.9141 13.248 42.487 13.248H42.9801C43.5437 13.248 43.8254 13.5298 43.8254 14.0934V18.9116H43.9663C45.0464 17.7 46.5492 17.0942 48.4746 17.0942H48.6859ZM47.6011 29.6188C49.3575 29.6188 50.663 29.2102 51.5177 28.3931C52.3818 27.5666 52.8138 26.2188 52.8138 24.3497C52.8138 22.5088 52.4241 21.1751 51.6445 20.3486C50.8649 19.5127 49.7332 19.0947 48.2492 19.0947C46.9155 19.0947 45.8448 19.4188 45.037 20.0669C44.2293 20.7055 43.8254 21.687 43.8254 23.0113V28.3227C43.8254 28.5669 43.9475 28.7782 44.1917 28.9567C44.4453 29.1351 44.774 29.2713 45.1779 29.3652C45.5818 29.4498 45.9857 29.5155 46.3895 29.5625C46.7934 29.6 47.1973 29.6188 47.6011 29.6188Z" fill="#FAFAFA"/>
<path d="M15.2934 50.1792C13.2646 50.1792 11.6351 49.5076 10.4047 48.1645C9.18368 46.8121 8.57318 45.051 8.57318 42.8814C8.57318 40.7118 9.18368 38.9554 10.4047 37.6123C11.6257 36.2692 13.2505 35.5977 15.2793 35.5977H15.9133C17.942 35.5977 19.5669 36.2692 20.7879 37.6123C22.0089 38.9554 22.6194 40.7118 22.6194 42.8814C22.6194 45.051 22.0042 46.8121 20.7738 48.1645C19.5528 49.5076 17.9279 50.1792 15.8992 50.1792H15.2934ZM15.3075 48.1364H15.8851C17.2939 48.1364 18.4069 47.6621 19.224 46.7134C20.0506 45.7554 20.4638 44.4781 20.4638 42.8814C20.4638 41.2847 20.0506 40.012 19.224 39.0634C18.4069 38.1148 17.2939 37.6405 15.8851 37.6405H15.3075C13.8986 37.6405 12.7809 38.1148 11.9544 39.0634C11.1373 40.012 10.7287 41.2847 10.7287 42.8814C10.7287 44.4781 11.1373 45.7554 11.9544 46.7134C12.7809 47.6621 13.8986 48.1364 15.3075 48.1364Z" fill="#FAFAFA"/>
<path d="M47.9674 50.1792C45.9387 50.1792 44.3091 49.5076 43.0788 48.1645C41.8578 46.8121 41.2473 45.051 41.2473 42.8814C41.2473 40.7118 41.8578 38.9554 43.0788 37.6123C44.2997 36.2692 45.9246 35.5977 47.9534 35.5977H48.5873C50.6161 35.5977 52.2409 36.2692 53.4619 37.6123C54.6829 38.9554 55.2934 40.7118 55.2934 42.8814C55.2934 45.051 54.6782 46.8121 53.4478 48.1645C52.2268 49.5076 50.602 50.1792 48.5732 50.1792H47.9674ZM47.9815 48.1364H48.5592C49.968 48.1364 51.081 47.6621 51.8981 46.7134C52.7246 45.7554 53.1379 44.4781 53.1379 42.8814C53.1379 41.2847 52.7246 40.012 51.8981 39.0634C51.081 38.1148 49.968 37.6405 48.5592 37.6405H47.9815C46.5727 37.6405 45.455 38.1148 44.6285 39.0634C43.8113 40.012 43.4028 41.2847 43.4028 42.8814C43.4028 44.4781 43.8113 45.7554 44.6285 46.7134C45.455 47.6621 46.5727 48.1364 47.9815 48.1364Z" fill="#FAFAFA"/>
<path d="M31.7655 50.1851C31.391 50.1851 31.1078 50.1213 30.916 49.9937C30.7242 49.8662 30.5598 49.6292 30.4228 49.283L25.7916 37.6242C25.682 37.3326 25.682 37.1003 25.7916 36.9272C25.9104 36.7449 26.1205 36.6538 26.4219 36.6538H26.9426C27.4084 36.6538 27.7281 36.8725 27.9017 37.3099L31.9984 47.8069C32.0532 47.9526 32.1583 48.0255 32.3136 48.0255H32.5602C32.7155 48.0255 32.8205 47.9526 32.8753 47.8069L36.9721 37.3099C37.1457 36.8725 37.4654 36.6538 37.9312 36.6538H38.4519C38.7533 36.6538 38.9588 36.7449 39.0685 36.9272C39.1872 37.1003 39.1918 37.3326 39.0822 37.6242L34.451 49.283C34.314 49.6292 34.1496 49.8662 33.9578 49.9937C33.7659 50.1213 33.4828 50.1851 33.1083 50.1851H31.7655Z" fill="#FAFAFA"/>
<g clip-path="url(#clip0_137_632)">
<path d="M20.4297 17.5317C19.7636 16.2726 18.999 15.2241 18.2191 14.5C17.3271 13.6726 16.4162 13.2529 15.5116 13.2529C14.607 13.2529 13.6961 13.6726 12.8044 14.5C12.0241 15.2241 11.2598 16.2726 10.5935 17.5317C9.3752 19.8352 8.55652 22.7115 8.55652 24.6896C8.55652 26.546 9.27996 28.2912 10.5935 29.6041C11.907 30.9167 13.6537 31.6398 15.5116 31.6398C17.3695 31.6398 19.1159 30.917 20.4297 29.6041C21.7432 28.2915 22.4666 26.546 22.4666 24.6896C22.4666 22.7118 21.648 19.8352 20.4297 17.532V17.5317Z" fill="url(#paint0_linear_137_632)"/>
<path d="M20.4297 17.5317C19.7636 16.2726 18.999 15.2241 18.2191 14.5C17.3271 13.6726 16.4162 13.2529 15.5116 13.2529C14.607 13.2529 13.6961 13.6726 12.8044 14.5C12.0241 15.2241 11.2598 16.2726 10.5935 17.5317C9.3752 19.8352 8.55652 22.7115 8.55652 24.6896C8.55652 26.546 9.27996 28.2912 10.5935 29.6041C11.907 30.9167 13.6537 31.6398 15.5116 31.6398C17.3695 31.6398 19.1159 30.917 20.4297 29.6041C21.7432 28.2915 22.4666 26.546 22.4666 24.6896C22.4666 22.7118 21.648 19.8352 20.4297 17.532V17.5317Z" fill="url(#paint1_linear_137_632)"/>
</g>
<defs>
<linearGradient id="paint0_linear_137_632" x1="6.36764" y1="32.6146" x2="16.5559" y2="23.7397" gradientUnits="userSpaceOnUse">
<stop stop-color="#171737"/>
<stop offset="0.1" stop-color="#474761"/>
<stop offset="0.22" stop-color="#77778A"/>
<stop offset="0.34" stop-color="#A1A1AE"/>
<stop offset="0.47" stop-color="#C3C3CB"/>
<stop offset="0.59" stop-color="#DDDDE2"/>
<stop offset="0.72" stop-color="#F0F0F2"/>
<stop offset="0.86" stop-color="#FBFBFB"/>
<stop offset="1" stop-color="white"/>
</linearGradient>
<linearGradient id="paint1_linear_137_632" x1="1.05463" y1="19.1828" x2="15.541" y2="21.4712" gradientUnits="userSpaceOnUse">
<stop/>
<stop offset="1" stop-color="white" stop-opacity="0"/>
</linearGradient>
<clipPath id="clip0_137_632">
<rect width="13.9101" height="18.3866" fill="white" transform="translate(8.55652 13.2529)"/>
</clipPath>
</defs>
</svg>
