<svg width="24" height="25" viewBox="0 0 24 25" fill="none" xmlns="http://www.w3.org/2000/svg">
<path d="M5.57999 6.07972C5.79092 5.86905 6.07686 5.75071 6.37499 5.75071C6.67311 5.75071 6.95905 5.86905 7.16999 6.07972L12 10.9097L16.83 6.07972C16.9675 5.93163 17.1424 5.82338 17.3363 5.76636C17.5301 5.70933 17.7358 5.70566 17.9316 5.75572C18.1274 5.80578 18.306 5.90772 18.4487 6.0508C18.5915 6.19388 18.6929 6.37281 18.7425 6.56872C18.7926 6.76429 18.7891 6.96974 18.7324 7.16349C18.6756 7.35723 18.5677 7.53211 18.42 7.66972L13.59 12.4997L18.42 17.3297C18.5681 17.4672 18.6763 17.6421 18.7334 17.836C18.7904 18.0299 18.794 18.2355 18.744 18.4313C18.6939 18.6271 18.592 18.8058 18.4489 18.9485C18.3058 19.0912 18.1269 19.1927 17.931 19.2422C17.7354 19.2923 17.53 19.2888 17.3362 19.2321C17.1425 19.1753 16.9676 19.0674 16.83 18.9197L12 14.0897L7.16999 18.9197C6.95659 19.1183 6.67452 19.2265 6.38304 19.2215C6.09157 19.2164 5.81339 19.0986 5.60699 18.8927C5.40112 18.6863 5.28329 18.4081 5.27825 18.1167C5.27322 17.8252 5.38137 17.5431 5.57999 17.3297L10.41 12.4997L5.57999 7.66972C5.36931 7.45878 5.25098 7.17285 5.25098 6.87472C5.25098 6.57659 5.36931 6.29066 5.57999 6.07972Z" fill="#001AA3"/>
</svg>
