<?xml version="1.0" encoding="UTF-8"?>
<svg id="Réteg_1" data-name="Réteg 1" xmlns="http://www.w3.org/2000/svg" xmlns:xlink="http://www.w3.org/1999/xlink" version="1.1" viewBox="0 0 403 337">
  <defs>
    <style>
      .cls-1 {
        fill: url(#Névtelen_színátmenet);
      }

      .cls-1, .cls-2, .cls-3, .cls-4, .cls-5 {
        stroke-width: 0px;
      }

      .cls-6, .cls-2, .cls-7, .cls-8, .cls-9 {
        fill: none;
      }

      .cls-6, .cls-7, .cls-8, .cls-9, .cls-10 {
        stroke: #001aa3;
        stroke-linecap: round;
        stroke-linejoin: round;
      }

      .cls-6, .cls-10 {
        stroke-width: 2px;
      }

      .cls-11 {
        clip-path: url(#clippath);
      }

      .cls-7 {
        stroke-width: 1.3px;
      }

      .cls-3, .cls-12 {
        fill: #fafafa;
      }

      .cls-4 {
        fill: url(#Névtelen_színátmenet_2);
      }

      .cls-8 {
        stroke-width: 3.5px;
      }

      .cls-13 {
        clip-path: url(#clippath-1);
      }

      .cls-14 {
        clip-path: url(#clippath-3);
      }

      .cls-15 {
        clip-path: url(#clippath-2);
      }

      .cls-12 {
        stroke: #fafafa;
        stroke-width: 6.9px;
      }

      .cls-9 {
        stroke-width: 3.4px;
      }

      .cls-5, .cls-10 {
        fill: #001aa3;
      }
    </style>
    <clipPath id="clippath">
      <rect class="cls-2" x="118.1" y="136.9" width="48.1" height="63.6"/>
    </clipPath>
    <linearGradient id="Névtelen_színátmenet" data-name="Névtelen színátmenet" x1="107.8" y1="207.4" x2="143" y2="238.1" gradientTransform="translate(0 408.1) scale(1 -1)" gradientUnits="userSpaceOnUse">
      <stop offset="0" stop-color="#171737"/>
      <stop offset="0" stop-color="#474761"/>
      <stop offset=".2" stop-color="#77778a"/>
      <stop offset=".3" stop-color="#a1a1ae"/>
      <stop offset=".5" stop-color="#c3c3cb"/>
      <stop offset=".6" stop-color="#dddde2"/>
      <stop offset=".7" stop-color="#f0f0f2"/>
      <stop offset=".9" stop-color="#fbfbfb"/>
      <stop offset="1" stop-color="#fff"/>
    </linearGradient>
    <linearGradient id="Névtelen_színátmenet_2" data-name="Névtelen színátmenet 2" x1="91.7" y1="247.3" x2="141.7" y2="239.4" gradientTransform="translate(0 408.1) scale(1 -1)" gradientUnits="userSpaceOnUse">
      <stop offset="0" stop-color="#000"/>
      <stop offset="1" stop-color="#fff" stop-opacity="0"/>
    </linearGradient>
    <clipPath id="clippath-1">
      <rect class="cls-2" x="333.7" y="38.1" width="24" height="24"/>
    </clipPath>
    <clipPath id="clippath-2">
      <rect class="cls-2" x="69.7" y="17.1" width="24" height="24"/>
    </clipPath>
    <clipPath id="clippath-3">
      <rect class="cls-2" x="318.7" y="101.1" width="16" height="16"/>
    </clipPath>
  </defs>
  <g>
    <rect class="cls-5" x="88.6" y="91.1" width="217.8" height="217.8" rx="40.7" ry="40.7" shape-rendering="crispEdges"/>
    <path class="cls-12" d="M162.7,176.5c0,11.4-9.2,20.6-20.6,20.6s-20.6-9.2-20.6-20.6,2.5-15.3,6.6-23.1c2.1-3.9,4.4-7.2,6.9-9.6,2.5-2.3,4.9-3.4,7-3.4s4.5,1.1,7,3.4c2.5,2.3,4.9,5.7,6.9,9.6,4.2,7.9,6.6,17.2,6.6,23.1Z"/>
    <path class="cls-3" d="M200.3,150.1c3.9,0,7.1.3,9.7.8,2.6.5,4.8,1.4,6.6,2.6,1.9,1.3,3.2,3,4,5.1.8,2.1,1.2,4.8,1.2,8.1v30c0,.8-.2,1.4-.7,1.9-.5.5-1,.7-1.8.7h-1.9c-.7,0-1.2-.2-1.7-.7-.5-.5-.7-1.1-.9-1.9l-.7-4.3v-.4c-1.9,2.7-4.4,4.9-7.8,6.4-3.3,1.5-7,2.2-11.1,2.2h-1.7c-5.3,0-9.4-1.3-12.2-3.8-2.8-2.6-4.2-6.3-4.2-11.2s1.2-8.2,3.7-10.8c2.5-2.7,6.2-4,11.2-4h22.2v-2.4c0-4.3-1-7.2-3.1-8.7-2-1.6-6-2.3-11.9-2.3s-2.9,0-4.3.1c-1.4,0-2.6.2-3.6.3-1,.1-1.9.3-2.7.4-.7,0-1.4.2-2,.3-.6.1-1,.2-1.1.2-.8.1-1.4,0-1.9-.4-.5-.5-.7-1.1-.7-1.8v-1.8c0-1.4,1.6-2.5,4.9-3.3,3.3-.7,7.4-1.1,12.3-1.1ZM214.3,182.3v-5.6s-20.7,0-20.7,0c-5.9,0-8.9,2.8-8.9,8.4s.8,5.3,2.5,6.7c1.7,1.4,4.3,2.1,7.7,2.1h1.8c2.2,0,4.4-.2,6.3-.6,2-.4,3.8-1.1,5.6-1.9,1.7-.9,3.1-2.1,4-3.7,1-1.6,1.5-3.4,1.5-5.5Z"/>
    <path class="cls-3" d="M256.9,150.2c3.1,0,5.9.4,8.4,1.3,2.5.8,4.6,2,6.2,3.5,1.7,1.5,3,3.3,4.1,5.5,1.1,2.1,1.9,4.4,2.3,6.8.5,2.4.7,5,.7,7.8,0,17-8.4,25.4-25.3,25.4s-11.4-1-16.7-3c-2.8-1.1-4.1-3-4.1-5.8v-51.9c0-1.9,1-2.9,3-2.9h1.7c1.9,0,2.9,1,2.9,2.9v16.7h.5c3.7-4.2,8.9-6.3,15.6-6.3h.7ZM253.2,193.5c6.1,0,10.6-1.4,13.5-4.2,3-2.9,4.5-7.5,4.5-14s-1.3-11-4-13.8c-2.7-2.9-6.6-4.3-11.7-4.3s-8.3,1.1-11.1,3.4c-2.8,2.2-4.2,5.6-4.2,10.2v18.4c0,.8.4,1.6,1.3,2.2.9.6,2,1.1,3.4,1.4,1.4.3,2.8.5,4.2.7,1.4.1,2.8.2,4.2.2Z"/>
    <path class="cls-3" d="M141.4,264.6c-7,0-12.7-2.3-16.9-7-4.2-4.7-6.3-10.8-6.3-18.3s2.1-13.6,6.3-18.2c4.2-4.6,9.8-7,16.9-7h2.2c7,0,12.6,2.3,16.9,7,4.2,4.6,6.3,10.7,6.3,18.2s-2.1,13.6-6.4,18.3c-4.2,4.6-9.8,7-16.9,7h-2.1ZM141.5,257.6h2c4.9,0,8.7-1.6,11.5-4.9,2.9-3.3,4.3-7.7,4.3-13.3s-1.4-9.9-4.3-13.2c-2.8-3.3-6.7-4.9-11.5-4.9h-2c-4.9,0-8.7,1.6-11.6,4.9-2.8,3.3-4.2,7.7-4.2,13.2s1.4,9.9,4.2,13.3c2.9,3.3,6.7,4.9,11.6,4.9Z"/>
    <path class="cls-3" d="M254.4,264.6c-7,0-12.7-2.3-16.9-7-4.2-4.7-6.3-10.8-6.3-18.3s2.1-13.6,6.3-18.2c4.2-4.6,9.8-7,16.9-7h2.2c7,0,12.6,2.3,16.9,7,4.2,4.6,6.3,10.7,6.3,18.2s-2.1,13.6-6.4,18.3c-4.2,4.6-9.8,7-16.9,7h-2.1ZM254.5,257.6h2c4.9,0,8.7-1.6,11.5-4.9,2.9-3.3,4.3-7.7,4.3-13.3s-1.4-9.9-4.3-13.2c-2.8-3.3-6.7-4.9-11.5-4.9h-2c-4.9,0-8.7,1.6-11.6,4.9-2.8,3.3-4.2,7.7-4.2,13.2s1.4,9.9,4.2,13.3c2.9,3.3,6.7,4.9,11.6,4.9Z"/>
    <path class="cls-3" d="M198.4,264.6c-1.3,0-2.3-.2-2.9-.7s-1.2-1.3-1.7-2.5l-16-40.3c-.4-1-.4-1.8,0-2.4.4-.6,1.1-.9,2.2-.9h1.8c1.6,0,2.7.8,3.3,2.3l14.2,36.3c.2.5.6.8,1.1.8h.9c.5,0,.9-.3,1.1-.8l14.2-36.3c.6-1.5,1.7-2.3,3.3-2.3h1.8c1,0,1.8.3,2.1.9.4.6.4,1.4,0,2.4l-16,40.3c-.5,1.2-1,2-1.7,2.5s-1.6.7-2.9.7h-4.6Z"/>
    <g class="cls-11">
      <g>
        <path class="cls-1" d="M159.2,151.7c-2.3-4.4-4.9-8-7.6-10.5-3.1-2.9-6.2-4.3-9.4-4.3s-6.3,1.5-9.4,4.3c-2.7,2.5-5.3,6.1-7.6,10.5-4.2,8-7,17.9-7,24.8s2.5,12.5,7,17c4.5,4.5,10.6,7,17,7s12.5-2.5,17-7c4.5-4.5,7-10.6,7-17s-2.8-16.8-7-24.8h0Z"/>
        <path class="cls-4" d="M159.2,151.7c-2.3-4.4-4.9-8-7.6-10.5-3.1-2.9-6.2-4.3-9.4-4.3s-6.3,1.5-9.4,4.3c-2.7,2.5-5.3,6.1-7.6,10.5-4.2,8-7,17.9-7,24.8s2.5,12.5,7,17c4.5,4.5,10.6,7,17,7s12.5-2.5,17-7c4.5-4.5,7-10.6,7-17s-2.8-16.8-7-24.8h0Z"/>
      </g>
    </g>
  </g>
  <path class="cls-5" d="M19.7,96.4c-1.6,0-3.1-.4-4-1v-1.9c1,.6,2.4.9,4,.9s3-.4,4-.9v1.6c.2,0,.4,0,.7,0s.4,0,.7,0v-3.4c0-1.5-2.4-2.7-5.3-2.7s-5.3,1.2-5.3,2.7v6.7c0,1.5,2.4,2.7,5.3,2.7h.2c-.1-.4-.2-.9-.2-1.3-2.6,0-4-1-4-1.3v-1.5c1.1.5,2.5.8,4,.8s.3,0,.5,0c.3-.6.6-1,1.1-1.4-.5,0-1,.1-1.5.1ZM19.7,90.4c2.6,0,4,1,4,1.3s-1.4,1.3-4,1.3-4-1-4-1.3,1.4-1.3,4-1.3ZM26.8,100.2v-.7l.7-.5c0,0,.1-.1,0-.2l-.7-1.1c0,0-.1,0-.2,0l-.8.3c-.2-.1-.4-.3-.6-.3v-.9c-.1,0-.2-.1-.3-.1h-1.3c-.1,0-.2,0-.2.1v.9c-.3.1-.5.2-.7.3l-.8-.3c0,0-.1,0-.2,0l-.7,1.1c0,0,0,.1,0,.2l.7.5v.7l-.7.5c0,0-.1.1,0,.2l.7,1.1c0,0,.1,0,.2,0l.8-.3c.1.1.3.3.5.3v.9c.2,0,.3.1.3.1h1.3c0,0,.1,0,.1-.1v-.9c.3-.1.5-.2.7-.3l.8.3c0,0,.1,0,.2,0l.7-1.1c0,0,0-.1,0-.1l-.7-.5ZM24.4,100.8c-.5,0-1-.5-1-1s.5-1,1-1,1,.5,1,1-.5,1-1,1Z"/>
  <path class="cls-9" d="M64.8,201.2v-2.2c0-1.2-.5-2.3-1.5-3.2-.9-.8-2.2-1.3-3.6-1.3h-10.1c-1.3,0-2.6.5-3.6,1.3-.9.8-1.5,2-1.5,3.2v2.2"/>
  <path class="cls-9" d="M54.7,189.4c2.8,0,5-2.3,5-5s-2.3-5-5-5-5,2.3-5,5,2.3,5,5,5Z"/>
  <path class="cls-9" d="M71.5,201.2v-2.3c0-1-.3-2-.9-2.8-.6-.8-1.5-1.4-2.4-1.6"/>
  <path class="cls-9" d="M37.9,201.2v-2.3c0-1,.3-2,.9-2.8s1.5-1.4,2.4-1.6"/>
  <path class="cls-9" d="M63.1,179.4c1,.3,1.8.9,2.4,1.9.6.9.9,2,.9,3.2s-.3,2.3-.9,3.2c-.6.9-1.5,1.6-2.4,1.8"/>
  <path class="cls-9" d="M46.3,179.4c-1,.3-1.8.9-2.4,1.9-.6.9-.9,2-.9,3.2s.3,2.3.9,3.2c.6.9,1.5,1.6,2.4,1.8"/>
  <path class="cls-5" d="M389.4,137.3l-1.3-1.1v-10.5c0-1.6-1-2.6-2.6-2.6s-2.6,1.1-2.6,2.6v1.3c-5.2,2.4-13.1,6.6-21,6.6h-6.6c-3.7,0-6.6,3.1-6.6,6.6s1.3,4.5,3.2,5.5l2.9,15.5c0,.8.8,1.3,1.8,1.3h.5l9.4-1.8c1.1-.3,1.6-1.1,1.3-1.8-.8-1.6-2.1-3.9-3.2-4.7-.5-.3-1.3-2.4-1.8-4.7h1.6v-2.4c7.1.8,15.8,4.2,18.4,6.3v1.3c0,1.6,1.1,2.6,2.6,2.6s2.6-1.1,2.6-2.6v-10.5l1.1-.8c1-.8,1.6-1.8,1.6-2.9v-.5c0-1.1-.5-1.8-1.3-2.6ZM353.9,136.2h7.9v2.6h-7.9v-2.6ZM363.4,156.2c.3,0,.8.8,1.3,1.8l-7.3,1.8-2.6-13.1h5c.5,3.4,1.6,8.4,3.7,9.4ZM382.8,150.1c-4.2-2.1-11.5-5.2-18.4-6v-7.9c6.8-.8,14.2-3.7,18.4-6v19.9Z"/>
  <g class="cls-13">
    <g>
      <path class="cls-6" d="M349.7,59.1v-2c0-1.1-.4-2.1-1.2-2.8-.8-.8-1.8-1.2-2.8-1.2h-7c-1.1,0-2.1.4-2.8,1.2-.8.8-1.2,1.8-1.2,2.8v2"/>
      <path class="cls-6" d="M342.2,49.1c2.2,0,4-1.8,4-4s-1.8-4-4-4-4,1.8-4,4,1.8,4,4,4Z"/>
      <path class="cls-6" d="M350.7,49.1l2,2,4-4"/>
    </g>
  </g>
  <path class="cls-8" d="M187.9,48.1h-24.5c-1.9,0-3.5,1.6-3.5,3.5v24.5c0,1.9,1.6,3.5,3.5,3.5h24.5c1.9,0,3.5-1.6,3.5-3.5v-24.5c0-1.9-1.6-3.5-3.5-3.5Z"/>
  <path class="cls-8" d="M182.7,44.6v7"/>
  <path class="cls-8" d="M168.7,44.6v7"/>
  <path class="cls-8" d="M159.9,58.6h31.5"/>
  <path class="cls-7" d="M355,211.4h-5.3c-.4,0-.7.1-.9.4-.2.2-.4.6-.4.9v10.7c0,.4.1.7.4.9s.6.4.9.4h8c.4,0,.7-.1.9-.4.2-.2.4-.6.4-.9v-8l-4-4Z"/>
  <path class="cls-7" d="M355,211.4v4h4"/>
  <path class="cls-7" d="M356.4,218.8h-5.3"/>
  <path class="cls-7" d="M356.4,221.4h-5.3"/>
  <path class="cls-7" d="M352.4,216.1h-1.3"/>
  <path class="cls-6" d="M64.7,108.1c3.9,0,7-3.1,7-7s-3.1-7-7-7-7,3.1-7,7,3.1,7,7,7Z"/>
  <path class="cls-6" d="M60.9,107l-1.2,9.1,5-3,5,3-1.2-9.1"/>
  <g class="cls-15">
    <g>
      <path class="cls-6" d="M86.7,38.1v-2c0-1.1-.4-2.1-1.2-2.8-.8-.8-1.8-1.2-2.8-1.2h-8c-1.1,0-2.1.4-2.8,1.2-.8.8-1.2,1.8-1.2,2.8v2"/>
      <path class="cls-6" d="M78.7,28.1c2.2,0,4-1.8,4-4s-1.8-4-4-4-4,1.8-4,4,1.8,4,4,4Z"/>
      <path class="cls-10" d="M89.7,28.2l-1.6.9s0,0-.1,0c0,0-.1,0-.1,0,0,0,0,0,0-.1,0,0,0-.1,0-.2l.3-1.8-1.3-1.3s0,0,0-.1c0,0,0-.1,0-.2,0,0,0,0,0-.1,0,0,0,0,.1,0l1.7-.3.8-1.6s0,0,.1-.1c0,0,0,0,.1,0s.1,0,.1,0c0,0,0,0,.1.1l.8,1.6,1.7.3c0,0,0,0,.1,0,0,0,0,0,0,.1s0,.1,0,.2c0,0,0,.1,0,.1l-1.3,1.3.3,1.8c0,0,0,.1,0,.2,0,0,0,0,0,.1,0,0,0,0-.1,0s-.1,0-.1,0l-1.6-.9Z"/>
    </g>
  </g>
  <g class="cls-14">
    <g>
      <path class="cls-7" d="M326.7,115.8c3.7,0,6.7-3,6.7-6.7s-3-6.7-6.7-6.7-6.7,3-6.7,6.7,3,6.7,6.7,6.7Z"/>
      <path class="cls-7" d="M326.7,106.4v5.3"/>
      <path class="cls-7" d="M324,109.1h5.3"/>
    </g>
  </g>
  <path class="cls-6" d="M254.7,40.1h6c1.1,0,2.1.4,2.8,1.2.8.8,1.2,1.8,1.2,2.8v14c0-.8-.3-1.6-.9-2.1-.6-.6-1.3-.9-2.1-.9h-7v-15Z"/>
  <path class="cls-6" d="M274.7,40.1h-6c-1.1,0-2.1.4-2.8,1.2-.8.8-1.2,1.8-1.2,2.8v14c0-.8.3-1.6.9-2.1.6-.6,1.3-.9,2.1-.9h7v-15Z"/>
</svg>