<svg width="43" height="42" viewBox="0 0 43 42" fill="none" xmlns="http://www.w3.org/2000/svg">
<g id="mingcute:choice-line" clip-path="url(#clip0_280_2730)">
<g id="Group">
<path id="Vector" fill-rule="evenodd" clip-rule="evenodd" d="M10.832 5.25C9.43965 5.25 8.10429 5.80312 7.11972 6.78769C6.13515 7.77226 5.58203 9.10761 5.58203 10.5V31.5C5.58203 32.8924 6.13515 34.2277 7.11972 35.2123C8.10429 36.1969 9.43965 36.75 10.832 36.75H31.832C33.2244 36.75 34.5598 36.1969 35.5443 35.2123C36.5289 34.2277 37.082 32.8924 37.082 31.5V22.75C37.082 22.2859 36.8977 21.8408 36.5695 21.5126C36.2413 21.1844 35.7962 21 35.332 21C34.8679 21 34.4228 21.1844 34.0946 21.5126C33.7664 21.8408 33.582 22.2859 33.582 22.75V31.5C33.582 31.9641 33.3977 32.4093 33.0695 32.7374C32.7413 33.0656 32.2962 33.25 31.832 33.25H10.832C10.3679 33.25 9.92278 33.0656 9.59459 32.7374C9.26641 32.4093 9.08203 31.9641 9.08203 31.5V10.5C9.08203 10.0359 9.26641 9.59075 9.59459 9.26256C9.92278 8.93437 10.3679 8.75 10.832 8.75H24.832C25.2962 8.75 25.7413 8.56563 26.0695 8.23744C26.3977 7.90925 26.582 7.46413 26.582 7C26.582 6.53587 26.3977 6.09075 26.0695 5.76256C25.7413 5.43437 25.2962 5.25 24.832 5.25H10.832ZM37.7085 10.5788C38.1117 10.3493 38.4073 9.96923 38.5304 9.52196C38.6534 9.0747 38.5939 8.59687 38.3648 8.1935C38.1321 7.79333 37.7517 7.50041 37.3054 7.37769C36.859 7.25498 36.3823 7.31227 35.9778 7.53725C35.36 7.88725 34.7633 8.27925 34.1753 8.67475C32.6846 9.67836 31.246 10.7572 29.865 11.907C26.9915 14.2975 23.5405 17.6645 20.6968 21.9135C19.8147 20.7475 18.788 19.6984 17.6413 18.7915C16.894 18.2087 16.0628 17.6365 15.165 17.311C14.7292 17.1511 14.246 17.1709 13.8248 17.366C13.4035 17.5611 13.077 17.9156 12.9172 18.3514C12.7573 18.7872 12.777 19.2687 12.9722 19.6899C13.1673 20.1111 13.5217 20.4376 13.9575 20.5975C14.0013 20.615 14.605 20.86 15.4905 21.5512C16.502 22.3387 17.8985 23.7195 19.246 26.026C19.401 26.2915 19.6233 26.5116 19.8904 26.6639C20.1575 26.8162 20.46 26.8955 20.7675 26.8937C21.0749 26.8919 21.3765 26.8092 21.6418 26.6538C21.9072 26.4984 22.1268 26.2758 22.2788 26.0085C25.0508 21.1243 28.906 17.2585 32.1033 14.5985C33.6958 13.2738 35.1133 12.2605 36.1248 11.5815C36.641 11.2333 37.166 10.892 37.7068 10.5805L37.7085 10.5788Z" fill="#001AA3"/>
</g>
</g>
<defs>
<clipPath id="clip0_280_2730">
<rect width="42" height="42" fill="white" transform="translate(0.332031)"/>
</clipPath>
</defs>
</svg>
