<svg width="25" height="25" viewBox="0 0 25 25" fill="none" xmlns="http://www.w3.org/2000/svg">
<g id="Social Icons" clip-path="url(#clip0_158_1740)">
<path id="Vector" d="M12.8574 0.530273C6.23006 0.530273 0.857422 5.90291 0.857422 12.5303C0.857422 18.1578 4.73198 22.88 9.9587 24.177V16.1975H7.4843V12.5303H9.9587V10.9501C9.9587 6.86579 11.8072 4.97267 15.8171 4.97267C16.5774 4.97267 17.8893 5.12195 18.4259 5.27075V8.59475C18.1427 8.56499 17.6507 8.55011 17.0397 8.55011C15.0721 8.55011 14.3118 9.29555 14.3118 11.2333V12.5303H18.2315L17.5581 16.1975H14.3118V24.4424C20.2537 23.7248 24.8579 18.6656 24.8579 12.5303C24.8574 5.90291 19.4848 0.530273 12.8574 0.530273Z" fill="#001AA3"/>
</g>
<defs>
<clipPath id="clip0_158_1740">
<rect width="24" height="24" fill="white" transform="translate(0.857422 0.530273)"/>
</clipPath>
</defs>
</svg>
