<svg width="42" height="42" viewBox="0 0 42 42" fill="none" xmlns="http://www.w3.org/2000/svg">
<g id="ph:fire-bold">
<path id="Vector" d="M29.1408 26.1841C28.7287 27.4942 28.0063 28.6855 27.0352 29.6566C26.064 30.6278 24.8728 31.3501 23.5627 31.7622C23.3714 31.8217 23.1723 31.8521 22.972 31.8524C22.5014 31.8528 22.0462 31.6845 21.689 31.3782C21.3317 31.0718 21.0961 30.6476 21.0247 30.1824C20.9532 29.7173 21.0508 29.2419 21.2997 28.8425C21.5486 28.4431 21.9324 28.146 22.3814 28.0052C23.0875 27.7833 23.7295 27.3942 24.2528 26.8709C24.7761 26.3476 25.1652 25.7056 25.387 24.9996C25.4646 24.7529 25.59 24.5239 25.756 24.3256C25.9221 24.1274 26.1256 23.9638 26.3549 23.8442C26.8179 23.6027 27.358 23.555 27.8562 23.7117C28.1029 23.7892 28.3319 23.9146 28.5301 24.0807C28.7283 24.2467 28.8919 24.4502 29.0115 24.6795C29.1311 24.9088 29.2043 25.1594 29.2271 25.417C29.2498 25.6746 29.2216 25.9341 29.1441 26.1808L29.1408 26.1841ZM36.0938 23.6247C36.0938 27.6278 34.5035 31.467 31.6729 34.2976C28.8423 37.1282 25.0031 38.7185 21 38.7185C16.9969 38.7185 13.1577 37.1282 10.3271 34.2976C7.49648 31.467 5.90625 27.6278 5.90625 23.6247C5.90625 18.8981 7.75524 14.0796 11.3991 9.30533C11.5679 9.08411 11.7816 8.90118 12.0263 8.7686C12.2709 8.63603 12.5409 8.55682 12.8184 8.5362C13.0959 8.51558 13.3746 8.55402 13.6361 8.64899C13.8977 8.74395 14.1362 8.89328 14.3358 9.08713L17.5662 12.2224L20.8359 3.26291C20.9441 2.96648 21.1218 2.70037 21.3543 2.48702C21.5868 2.27366 21.8671 2.11931 22.1717 2.03697C22.4763 1.95463 22.7963 1.9467 23.1046 2.01387C23.4129 2.08104 23.7005 2.22132 23.9433 2.42291C27.5953 5.45479 36.0938 13.5923 36.0938 23.6247ZM32.1562 23.6247C32.1562 16.7817 27.1343 10.7638 23.5397 7.33494L20.224 16.424C20.1114 16.7325 19.9235 17.008 19.6773 17.2253C19.4311 17.4427 19.1344 17.595 18.8143 17.6683C18.4942 17.7417 18.1609 17.7339 17.8446 17.6455C17.5283 17.5571 17.2391 17.391 17.0034 17.1623L13.2415 13.5119C10.9922 16.9605 9.84375 20.3533 9.84375 23.6247C9.84375 26.5835 11.0191 29.4212 13.1113 31.5134C15.2035 33.6056 18.0412 34.781 21 34.781C23.9588 34.781 26.7965 33.6056 28.8887 31.5134C30.9809 29.4212 32.1562 26.5835 32.1562 23.6247Z" fill="#001AA3"/>
</g>
</svg>
