<svg width="25" height="25" viewBox="0 0 25 25" fill="none" xmlns="http://www.w3.org/2000/svg">
<g id="Social Icons" clip-path="url(#clip0_158_1741)">
<path id="Vector" d="M12.2861 2.69121C15.4924 2.69121 15.8721 2.70527 17.133 2.76152C18.3049 2.81309 18.9377 3.00996 19.3596 3.17402C19.9174 3.38965 20.3205 3.65215 20.7377 4.06934C21.1596 4.49121 21.4174 4.88965 21.633 5.44746C21.7971 5.86934 21.9939 6.50684 22.0455 7.67402C22.1018 8.93965 22.1158 9.31934 22.1158 12.5209C22.1158 15.7271 22.1018 16.1068 22.0455 17.3678C21.9939 18.5396 21.7971 19.1725 21.633 19.5943C21.4174 20.1521 21.1549 20.5553 20.7377 20.9725C20.3158 21.3943 19.9174 21.6521 19.3596 21.8678C18.9377 22.0318 18.3002 22.2287 17.133 22.2803C15.8674 22.3365 15.4877 22.3506 12.2861 22.3506C9.07988 22.3506 8.7002 22.3365 7.43926 22.2803C6.26738 22.2287 5.63457 22.0318 5.2127 21.8678C4.65488 21.6521 4.25176 21.3896 3.83457 20.9725C3.4127 20.5506 3.15488 20.1521 2.93926 19.5943C2.7752 19.1725 2.57832 18.535 2.52676 17.3678C2.47051 16.1021 2.45645 15.7225 2.45645 12.5209C2.45645 9.31465 2.47051 8.93496 2.52676 7.67402C2.57832 6.50215 2.7752 5.86934 2.93926 5.44746C3.15488 4.88965 3.41738 4.48652 3.83457 4.06934C4.25645 3.64746 4.65488 3.38965 5.2127 3.17402C5.63457 3.00996 6.27207 2.81309 7.43926 2.76152C8.7002 2.70527 9.07988 2.69121 12.2861 2.69121ZM12.2861 0.530273C9.02832 0.530273 8.62051 0.544336 7.34082 0.600586C6.06582 0.656836 5.18926 0.863086 4.42988 1.1584C3.6377 1.46777 2.96738 1.87559 2.30176 2.5459C1.63145 3.21152 1.22363 3.88184 0.914258 4.66934C0.618945 5.4334 0.412695 6.30527 0.356445 7.58027C0.300195 8.86465 0.286133 9.27246 0.286133 12.5303C0.286133 15.7881 0.300195 16.1959 0.356445 17.4756C0.412695 18.7506 0.618945 19.6271 0.914258 20.3865C1.22363 21.1787 1.63145 21.849 2.30176 22.5146C2.96738 23.1803 3.6377 23.5928 4.4252 23.8975C5.18926 24.1928 6.06113 24.399 7.33613 24.4553C8.61582 24.5115 9.02363 24.5256 12.2814 24.5256C15.5393 24.5256 15.9471 24.5115 17.2268 24.4553C18.5018 24.399 19.3783 24.1928 20.1377 23.8975C20.9252 23.5928 21.5955 23.1803 22.2611 22.5146C22.9268 21.849 23.3393 21.1787 23.6439 20.3912C23.9393 19.6271 24.1455 18.7553 24.2018 17.4803C24.258 16.2006 24.2721 15.7928 24.2721 12.535C24.2721 9.27715 24.258 8.86934 24.2018 7.58965C24.1455 6.31465 23.9393 5.43809 23.6439 4.67871C23.3486 3.88184 22.9408 3.21152 22.2705 2.5459C21.6049 1.88027 20.9346 1.46777 20.1471 1.16309C19.383 0.867773 18.5111 0.661523 17.2361 0.605273C15.9518 0.544336 15.5439 0.530273 12.2861 0.530273Z" fill="#001AA3"/>
<path id="Vector_2" d="M12.2861 6.36621C8.88301 6.36621 6.12207 9.12715 6.12207 12.5303C6.12207 15.9334 8.88301 18.6943 12.2861 18.6943C15.6893 18.6943 18.4502 15.9334 18.4502 12.5303C18.4502 9.12715 15.6893 6.36621 12.2861 6.36621ZM12.2861 16.5287C10.0783 16.5287 8.2877 14.7381 8.2877 12.5303C8.2877 10.3225 10.0783 8.53184 12.2861 8.53184C14.4939 8.53184 16.2846 10.3225 16.2846 12.5303C16.2846 14.7381 14.4939 16.5287 12.2861 16.5287Z" fill="#001AA3"/>
<path id="Vector_3" d="M20.133 6.12266C20.133 6.91953 19.4861 7.56172 18.6939 7.56172C17.8971 7.56172 17.2549 6.91485 17.2549 6.12266C17.2549 5.32578 17.9018 4.68359 18.6939 4.68359C19.4861 4.68359 20.133 5.33047 20.133 6.12266Z" fill="#001AA3"/>
</g>
<defs>
<clipPath id="clip0_158_1741">
<rect width="24" height="24" fill="white" transform="translate(0.286133 0.530273)"/>
</clipPath>
</defs>
</svg>
