<svg width="119" height="43" viewBox="0 0 119 43" fill="none" xmlns="http://www.w3.org/2000/svg">
<path d="M1.98807 6.46289C1.90751 6.46289 1.84116 6.43683 1.78904 6.3847C1.73691 6.33257 1.71084 6.26622 1.71084 6.18566V1.18843C1.71084 1.10787 1.73691 1.04152 1.78904 0.989396C1.84116 0.937268 1.90751 0.911204 1.98807 0.911204H3.40976C3.76044 0.911204 4.07084 0.989397 4.34096 1.14578C4.61108 1.29743 4.82197 1.50831 4.97361 1.77843C5.12526 2.04855 5.20108 2.36132 5.20108 2.71675C5.20108 3.06269 5.12526 3.37072 4.97361 3.64084C4.82197 3.90622 4.61108 4.11711 4.34096 4.27349C4.07084 4.42514 3.76044 4.50096 3.40976 4.50096H2.2653V6.18566C2.2653 6.26622 2.23924 6.33257 2.18711 6.3847C2.13498 6.43683 2.06863 6.46289 1.98807 6.46289ZM2.2653 3.96783H3.40976C3.65145 3.96783 3.86707 3.9157 4.05663 3.81144C4.24618 3.70245 4.39309 3.55317 4.49735 3.36361C4.60635 3.17406 4.66084 2.95843 4.66084 2.71675C4.66084 2.46558 4.60635 2.24522 4.49735 2.05566C4.39309 1.8661 4.24618 1.71683 4.05663 1.60783C3.86707 1.49883 3.65145 1.44434 3.40976 1.44434H2.2653V3.96783ZM7.33911 6.49843C6.96 6.49843 6.62116 6.41313 6.32261 6.24253C6.02405 6.07193 5.78947 5.83735 5.61887 5.53879C5.44827 5.24024 5.36297 4.9014 5.36297 4.52229C5.36297 4.13843 5.44827 3.79723 5.61887 3.49867C5.78947 3.20012 6.02405 2.96554 6.32261 2.79494C6.62116 2.62434 6.96 2.53903 7.33911 2.53903C7.71823 2.53903 8.0547 2.62434 8.34851 2.79494C8.64706 2.96554 8.88164 3.20012 9.05225 3.49867C9.22285 3.79723 9.31052 4.13843 9.31526 4.52229C9.31526 4.9014 9.22759 5.24024 9.05225 5.53879C8.88164 5.83735 8.64706 6.07193 8.34851 6.24253C8.0547 6.41313 7.71823 6.49843 7.33911 6.49843ZM7.33911 6.00084C7.61397 6.00084 7.8604 5.93687 8.07839 5.80891C8.29638 5.68096 8.46698 5.50562 8.5902 5.28289C8.71341 5.06016 8.77502 4.80663 8.77502 4.52229C8.77502 4.23795 8.71341 3.98442 8.5902 3.76169C8.46698 3.53422 8.29638 3.3565 8.07839 3.22855C7.8604 3.1006 7.61397 3.03663 7.33911 3.03663C7.06425 3.03663 6.81783 3.1006 6.59984 3.22855C6.38184 3.3565 6.20887 3.53422 6.08092 3.76169C5.95771 3.98442 5.8961 4.23795 5.8961 4.52229C5.8961 4.80663 5.95771 5.06016 6.08092 5.28289C6.20887 5.50562 6.38184 5.68096 6.59984 5.80891C6.81783 5.93687 7.06425 6.00084 7.33911 6.00084ZM10.7617 6.46289C10.7001 6.46289 10.6456 6.4463 10.5982 6.41313C10.5508 6.37996 10.5177 6.33731 10.4987 6.28518L9.38978 2.95843C9.36135 2.83996 9.36372 2.74755 9.39689 2.6812C9.43007 2.61012 9.49641 2.57458 9.59593 2.57458C9.65754 2.57458 9.71203 2.59116 9.75942 2.62434C9.80681 2.65751 9.84235 2.70964 9.86605 2.78072L10.8541 5.80181H10.6977L11.6147 2.78783C11.6337 2.72622 11.6645 2.67646 11.7071 2.63855C11.7545 2.5959 11.8138 2.57458 11.8848 2.57458C11.9559 2.57458 12.0128 2.59353 12.0554 2.63144C12.1028 2.66936 12.136 2.72148 12.155 2.78783L13.0293 5.73072H12.9085L13.8752 2.78072C13.9226 2.64329 14.0103 2.57458 14.1382 2.57458C14.2425 2.57458 14.3136 2.61486 14.3515 2.69542C14.3894 2.77124 14.3894 2.85891 14.3515 2.95843L13.2426 6.28518C13.2236 6.33731 13.1904 6.37996 13.143 6.41313C13.1004 6.4463 13.0483 6.46289 12.9867 6.46289C12.925 6.46289 12.8682 6.4463 12.816 6.41313C12.7687 6.37996 12.7379 6.33731 12.7236 6.28518L11.828 3.31385H11.9133L11.0176 6.28518C10.9987 6.34205 10.9655 6.38707 10.9181 6.42024C10.8707 6.44867 10.8186 6.46289 10.7617 6.46289ZM16.4819 6.49843C16.098 6.49843 15.7568 6.4155 15.4583 6.24964C15.1645 6.07904 14.9323 5.84446 14.7617 5.5459C14.5958 5.24735 14.5129 4.90614 14.5129 4.52229C14.5129 4.13369 14.591 3.79249 14.7474 3.49867C14.9086 3.20012 15.1289 2.96554 15.4085 2.79494C15.6881 2.62434 16.0104 2.53903 16.3753 2.53903C16.7354 2.53903 17.0482 2.62197 17.3136 2.78783C17.5837 2.94895 17.7922 3.17406 17.9391 3.46313C18.086 3.75221 18.1595 4.08157 18.1595 4.4512C18.1595 4.52703 18.1358 4.58863 18.0884 4.63602C18.041 4.67867 17.9794 4.7 17.9036 4.7H14.8825V4.24506H17.9604L17.6548 4.46542C17.6595 4.19056 17.6098 3.94414 17.5055 3.72614C17.4012 3.50815 17.252 3.33755 17.0577 3.21434C16.8681 3.09112 16.6406 3.02952 16.3753 3.02952C16.1051 3.02952 15.8682 3.09349 15.6644 3.22144C15.4606 3.3494 15.3019 3.52711 15.1882 3.75458C15.0792 3.97731 15.0247 4.23321 15.0247 4.52229C15.0247 4.81136 15.0863 5.06727 15.2095 5.29C15.3374 5.51273 15.5104 5.68807 15.7284 5.81602C15.9464 5.94397 16.1976 6.00795 16.4819 6.00795C16.6525 6.00795 16.8231 5.97952 16.9937 5.92265C17.169 5.86104 17.3088 5.78522 17.4131 5.69518C17.4652 5.65253 17.5245 5.6312 17.5908 5.6312C17.6572 5.62646 17.714 5.64305 17.7614 5.68096C17.823 5.73783 17.8538 5.79944 17.8538 5.86578C17.8586 5.93213 17.8325 5.989 17.7756 6.03638C17.6192 6.16908 17.4202 6.28044 17.1785 6.37048C16.9368 6.45578 16.7046 6.49843 16.4819 6.49843ZM19.0285 4.06735C19.0428 3.77353 19.1186 3.51052 19.256 3.27831C19.3982 3.0461 19.5806 2.86365 19.8034 2.73096C20.0308 2.59827 20.282 2.53193 20.5569 2.53193C20.7748 2.53193 20.9431 2.56273 21.0616 2.62434C21.18 2.68594 21.225 2.77598 21.1966 2.89446C21.1777 2.96554 21.1445 3.01293 21.0971 3.03663C21.0544 3.06032 20.9999 3.0698 20.9336 3.06506C20.872 3.06032 20.8009 3.05558 20.7204 3.05084C20.455 3.02715 20.218 3.05558 20.0095 3.13614C19.8057 3.21197 19.6422 3.33044 19.519 3.49157C19.4006 3.65269 19.3413 3.84462 19.3413 4.06735H19.0285ZM19.0712 6.46289C18.9859 6.46289 18.9195 6.4392 18.8722 6.39181C18.8248 6.34442 18.8011 6.27807 18.8011 6.19277V2.8447C18.8011 2.7594 18.8248 2.69305 18.8722 2.64566C18.9195 2.59827 18.9859 2.57458 19.0712 2.57458C19.1565 2.57458 19.2228 2.59827 19.2702 2.64566C19.3176 2.69305 19.3413 2.7594 19.3413 2.8447V6.19277C19.3413 6.27807 19.3176 6.34442 19.2702 6.39181C19.2228 6.4392 19.1565 6.46289 19.0712 6.46289ZM23.2507 6.49843C22.8669 6.49843 22.5257 6.4155 22.2271 6.24964C21.9333 6.07904 21.7011 5.84446 21.5305 5.5459C21.3646 5.24735 21.2817 4.90614 21.2817 4.52229C21.2817 4.13369 21.3599 3.79249 21.5163 3.49867C21.6774 3.20012 21.8978 2.96554 22.1774 2.79494C22.457 2.62434 22.7792 2.53903 23.1441 2.53903C23.5043 2.53903 23.817 2.62197 24.0824 2.78783C24.3525 2.94895 24.5611 3.17406 24.708 3.46313C24.8549 3.75221 24.9283 4.08157 24.9283 4.4512C24.9283 4.52703 24.9046 4.58863 24.8572 4.63602C24.8098 4.67867 24.7482 4.7 24.6724 4.7H21.6513V4.24506H24.7293L24.4236 4.46542C24.4284 4.19056 24.3786 3.94414 24.2743 3.72614C24.1701 3.50815 24.0208 3.33755 23.8265 3.21434C23.637 3.09112 23.4095 3.02952 23.1441 3.02952C22.874 3.02952 22.637 3.09349 22.4333 3.22144C22.2295 3.3494 22.0707 3.52711 21.957 3.75458C21.848 3.97731 21.7935 4.23321 21.7935 4.52229C21.7935 4.81136 21.8551 5.06727 21.9783 5.29C22.1063 5.51273 22.2792 5.68807 22.4972 5.81602C22.7152 5.94397 22.9664 6.00795 23.2507 6.00795C23.4213 6.00795 23.5919 5.97952 23.7625 5.92265C23.9379 5.86104 24.0777 5.78522 24.1819 5.69518C24.2341 5.65253 24.2933 5.6312 24.3596 5.6312C24.426 5.62646 24.4829 5.64305 24.5302 5.68096C24.5919 5.73783 24.6227 5.79944 24.6227 5.86578C24.6274 5.93213 24.6013 5.989 24.5445 6.03638C24.3881 6.16908 24.189 6.28044 23.9474 6.37048C23.7057 6.45578 23.4735 6.49843 23.2507 6.49843ZM27.2011 6.49843C26.8267 6.49843 26.4902 6.41313 26.1917 6.24253C25.8931 6.06719 25.6562 5.83024 25.4808 5.53169C25.3102 5.23313 25.2249 4.8943 25.2249 4.51518C25.2249 4.1408 25.3079 3.80434 25.4737 3.50578C25.6443 3.20723 25.8742 2.97265 26.1632 2.80205C26.4523 2.62671 26.7793 2.53903 27.1442 2.53903C27.4617 2.53903 27.7484 2.60775 28.0043 2.74518C28.2602 2.87787 28.4664 3.05558 28.6228 3.27831V1.18843C28.6228 1.10313 28.6488 1.03679 28.701 0.989396C28.7531 0.937268 28.8194 0.911204 28.9 0.911204C28.9806 0.911204 29.0469 0.937268 29.099 0.989396C29.1512 1.03679 29.1772 1.10313 29.1772 1.18843V4.54361C29.1677 4.91325 29.0753 5.24735 28.9 5.5459C28.7294 5.83972 28.4948 6.07193 28.1963 6.24253C27.9024 6.41313 27.5707 6.49843 27.2011 6.49843ZM27.2011 6.00084C27.4759 6.00084 27.72 5.93687 27.9332 5.80891C28.1512 5.67622 28.3218 5.49851 28.4451 5.27578C28.573 5.05305 28.637 4.79952 28.637 4.51518C28.637 4.23558 28.573 3.98442 28.4451 3.76169C28.3218 3.53422 28.1512 3.3565 27.9332 3.22855C27.72 3.1006 27.4759 3.03663 27.2011 3.03663C26.931 3.03663 26.6869 3.1006 26.4689 3.22855C26.2509 3.3565 26.0779 3.53422 25.95 3.76169C25.822 3.98442 25.7581 4.23558 25.7581 4.51518C25.7581 4.79952 25.822 5.05305 25.95 5.27578C26.0779 5.49851 26.2509 5.67622 26.4689 5.80891C26.6869 5.93687 26.931 6.00084 27.2011 6.00084ZM33.9399 6.49843C33.5702 6.49843 33.2361 6.41313 32.9376 6.24253C32.6438 6.07193 32.4092 5.83972 32.2338 5.5459C32.0632 5.24735 31.9756 4.91325 31.9708 4.54361V1.18843C31.9708 1.10313 31.9945 1.03679 32.0419 0.989396C32.094 0.937268 32.1628 0.911204 32.2481 0.911204C32.3286 0.911204 32.3926 0.937268 32.44 0.989396C32.4921 1.03679 32.5182 1.10313 32.5182 1.18843V3.27831C32.6746 3.05558 32.8807 2.87787 33.1366 2.74518C33.3973 2.60775 33.6863 2.53903 34.0038 2.53903C34.3687 2.53903 34.6957 2.62671 34.9848 2.80205C35.2739 2.97265 35.5014 3.20723 35.6672 3.50578C35.8378 3.80434 35.9231 4.1408 35.9231 4.51518C35.9231 4.8943 35.8355 5.23313 35.6601 5.53169C35.4895 5.83024 35.2549 6.06719 34.9564 6.24253C34.6578 6.41313 34.319 6.49843 33.9399 6.49843ZM33.9399 6.00084C34.2147 6.00084 34.4612 5.93687 34.6791 5.80891C34.8971 5.67622 35.0677 5.49851 35.191 5.27578C35.3189 5.05305 35.3829 4.79952 35.3829 4.51518C35.3829 4.23558 35.3189 3.98442 35.191 3.76169C35.0677 3.53422 34.8971 3.3565 34.6791 3.22855C34.4612 3.1006 34.2147 3.03663 33.9399 3.03663C33.6698 3.03663 33.4257 3.1006 33.2077 3.22855C32.9897 3.3565 32.8191 3.53422 32.6959 3.76169C32.5727 3.98442 32.5111 4.23558 32.5111 4.51518C32.5111 4.79952 32.5727 5.05305 32.6959 5.27578C32.8191 5.49851 32.9897 5.67622 33.2077 5.80891C33.4257 5.93687 33.6698 6.00084 33.9399 6.00084ZM37.1654 8.1547C37.1275 8.1547 37.0848 8.14522 37.0374 8.12626C36.8763 8.05518 36.8313 7.94144 36.9024 7.78506L39.1984 2.72385C39.2695 2.57221 39.3832 2.52956 39.5396 2.5959C39.7007 2.66225 39.7457 2.77361 39.6747 2.93L37.3715 7.9912C37.3241 8.1002 37.2554 8.1547 37.1654 8.1547ZM37.9544 6.34205C37.8833 6.37522 37.817 6.38233 37.7554 6.36337C37.6938 6.33968 37.644 6.29229 37.6061 6.2212L36.0209 2.93711C35.9877 2.86602 35.983 2.79968 36.0067 2.73807C36.0304 2.67646 36.0778 2.62908 36.1489 2.5959C36.22 2.56273 36.2863 2.55799 36.3479 2.58169C36.4095 2.60064 36.4569 2.64566 36.4901 2.71675L38.0468 6.00084C38.0847 6.07193 38.0966 6.13827 38.0824 6.19988C38.0681 6.26149 38.0255 6.30887 37.9544 6.34205Z" fill="white"/>
<path fill-rule="evenodd" clip-rule="evenodd" d="M3.65294 33.4562C2.91222 32.4294 2.30459 31.3058 1.84934 30.1115C0.891087 27.5977 0.645168 24.8682 1.13867 22.2236L5.58002 23.0524C5.23906 24.8796 5.40896 26.7654 6.07103 28.5022C6.32204 29.1607 6.64009 29.7881 7.01842 30.3752C6.72902 30.482 6.45756 30.6516 6.22513 30.884L3.65294 33.4562ZM5.9073 35.9273C5.3322 35.4264 4.79873 34.8826 4.31106 34.3015L6.97683 31.6357C7.17723 31.4353 7.43372 31.3252 7.69576 31.3054C8.06447 31.7554 8.47245 32.174 8.91576 32.556C8.89038 32.8082 8.78108 33.0535 8.58786 33.2468L5.9073 35.9273ZM6.73854 36.5995C8.8322 38.1694 11.3102 39.1494 13.914 39.435C16.5882 39.7283 19.2915 39.2779 21.7262 38.1334L19.8041 34.0446C18.122 34.8354 16.2543 35.1465 14.4066 34.9439C12.7627 34.7636 11.1913 34.1827 9.82886 33.2562C9.72139 33.5264 9.55829 33.7797 9.33956 33.9985L6.73854 36.5995Z" fill="white"/>
<path d="M5.10539 19.1861C5.85651 17.8201 6.86932 16.6154 8.08601 15.6408C9.30271 14.6662 10.6994 13.9408 12.1965 13.506C13.6935 13.0712 15.2615 12.9355 16.811 13.1067C18.3605 13.2779 19.8611 13.7526 21.2271 14.5037" stroke="white" stroke-width="3.54354" stroke-linecap="round"/>
<path fill-rule="evenodd" clip-rule="evenodd" d="M15.4941 33.4776C10.7787 33.4776 6.95601 29.6549 6.95601 24.9395C6.95601 20.224 10.7787 16.4014 15.4941 16.4014C20.2096 16.4014 24.0322 20.224 24.0322 24.9395C24.0322 29.6549 20.2096 33.4776 15.4941 33.4776ZM15.5284 31.5056C11.9079 31.5056 8.97287 28.5706 8.97287 24.9501C8.97287 21.3296 11.9079 18.3945 15.5284 18.3945C19.149 18.3945 22.084 21.3296 22.084 24.9501C22.084 28.5706 19.149 31.5056 15.5284 31.5056Z" fill="white"/>
<path d="M8.58706 33.2469C9.03194 32.802 9.03194 32.0808 8.58706 31.6359C8.14219 31.191 7.42091 31.191 6.97603 31.6359L1.8048 36.8071C1.35992 37.252 1.35992 37.9733 1.8048 38.4182C2.24967 38.863 2.97095 38.863 3.41583 38.4182L8.58706 33.2469Z" fill="white"/>
<path d="M112.342 25.7488C112.37 24.8373 112.589 24.0229 112.999 23.3056C113.422 22.5734 113.973 21.9981 114.65 21.5797C115.342 21.1613 116.098 20.9521 116.916 20.9521C117.636 20.9521 118.18 21.0642 118.547 21.2884C118.928 21.5125 119.069 21.8188 118.971 22.2073C118.928 22.4165 118.836 22.566 118.695 22.6556C118.568 22.7453 118.413 22.7901 118.229 22.7901C118.06 22.7901 117.862 22.7752 117.636 22.7453C116.803 22.6407 116.062 22.7004 115.413 22.9246C114.778 23.1338 114.269 23.4849 113.888 23.978C113.507 24.4712 113.316 25.0614 113.316 25.7488H112.342ZM112.448 33.3471C112.166 33.3471 111.947 33.2649 111.792 33.1006C111.636 32.9362 111.559 32.7046 111.559 32.4057V22.028C111.559 21.7292 111.636 21.4976 111.792 21.3332C111.947 21.1688 112.166 21.0866 112.448 21.0866C112.73 21.0866 112.942 21.1688 113.083 21.3332C113.239 21.4976 113.316 21.7292 113.316 22.028V32.4057C113.316 32.7046 113.239 32.9362 113.083 33.1006C112.942 33.2649 112.73 33.3471 112.448 33.3471Z" fill="white"/>
<path d="M104.377 33.4592C103.219 33.4592 102.196 33.1977 101.306 32.6748C100.417 32.1368 99.7179 31.3971 99.2096 30.4558C98.7014 29.5144 98.4473 28.4385 98.4473 27.2281C98.4473 26.0028 98.6873 24.927 99.1673 24.0005C99.6473 23.0591 100.304 22.3195 101.137 21.7815C101.984 21.2436 102.958 20.9746 104.059 20.9746C105.132 20.9746 106.064 21.2361 106.855 21.7591C107.659 22.2672 108.273 22.9769 108.697 23.8884C109.135 24.7999 109.353 25.8385 109.353 27.004C109.353 27.258 109.276 27.4672 109.121 27.6316C108.965 27.781 108.768 27.8557 108.528 27.8557H99.6755V26.3092H108.633L107.723 26.9816C107.737 26.1597 107.596 25.4201 107.299 24.7626C107.003 24.1051 106.579 23.5896 106.029 23.216C105.478 22.8424 104.822 22.6557 104.059 22.6557C103.254 22.6557 102.549 22.8499 101.941 23.2384C101.349 23.6269 100.89 24.1723 100.565 24.8747C100.254 25.562 100.099 26.3465 100.099 27.2281C100.099 28.1098 100.283 28.8942 100.65 29.5816C101.017 30.269 101.518 30.8069 102.153 31.1954C102.803 31.5839 103.544 31.7782 104.377 31.7782C104.857 31.7782 105.344 31.6885 105.838 31.5092C106.346 31.3299 106.749 31.1058 107.045 30.8368C107.215 30.7023 107.405 30.6351 107.617 30.6351C107.843 30.6201 108.026 30.6799 108.168 30.8144C108.379 31.0086 108.485 31.2178 108.485 31.442C108.499 31.6661 108.408 31.8604 108.21 32.0247C107.744 32.4431 107.151 32.7868 106.431 33.0558C105.711 33.3248 105.026 33.4592 104.377 33.4592Z" fill="white"/>
<path d="M96.4709 33.3471C95.7368 33.3471 95.0803 33.1603 94.5014 32.7867C93.9226 32.4131 93.4638 31.8976 93.1249 31.2401C92.8002 30.5827 92.6379 29.843 92.6379 29.0211V18.1279C92.6379 17.8589 92.7155 17.6348 92.8708 17.4555C93.0402 17.2762 93.2591 17.1865 93.5273 17.1865C93.7814 17.1865 93.9932 17.2762 94.1626 17.4555C94.332 17.6348 94.4167 17.8589 94.4167 18.1279V29.0211C94.4167 29.7235 94.6073 30.3062 94.9885 30.7694C95.3838 31.2327 95.878 31.4643 96.4709 31.4643H97.1062C97.3321 31.4643 97.5227 31.5539 97.678 31.7332C97.8333 31.9126 97.911 32.1367 97.911 32.4057C97.911 32.6896 97.8121 32.9212 97.6145 33.1005C97.4309 33.2649 97.1909 33.3471 96.8945 33.3471H96.4709ZM91.3884 23.1711C91.1484 23.1711 90.9507 23.0964 90.7954 22.9469C90.6401 22.7826 90.5625 22.5883 90.5625 22.3642C90.5625 22.1251 90.6401 21.9308 90.7954 21.7814C90.9507 21.617 91.1484 21.5349 91.3884 21.5349H96.6192C96.8592 21.5349 97.0568 21.617 97.2121 21.7814C97.3674 21.9308 97.4451 22.1251 97.4451 22.3642C97.4451 22.5883 97.3674 22.7826 97.2121 22.9469C97.0568 23.0964 96.8592 23.1711 96.6192 23.1711H91.3884Z" fill="white"/>
<path d="M87.9145 33.3471C87.6462 33.3471 87.4274 33.2649 87.258 33.1005C87.0886 32.9212 87.0039 32.6821 87.0039 32.3833V22.0504C87.0039 21.7516 87.0886 21.5199 87.258 21.3556C87.4274 21.1763 87.6462 21.0866 87.9145 21.0866C88.1827 21.0866 88.3945 21.1763 88.5498 21.3556C88.7192 21.5199 88.8039 21.7516 88.8039 22.0504V32.3833C88.8039 32.6821 88.7192 32.9212 88.5498 33.1005C88.3945 33.2649 88.1827 33.3471 87.9145 33.3471ZM87.8933 18.8676C87.5545 18.8676 87.2651 18.7406 87.025 18.4866C86.785 18.2176 86.665 17.9038 86.665 17.5452C86.665 17.1716 86.785 16.8653 87.025 16.6262C87.2792 16.3871 87.5686 16.2676 87.8933 16.2676C88.218 16.2676 88.5004 16.3871 88.7404 16.6262C88.9945 16.8653 89.1216 17.1716 89.1216 17.5452C89.1216 17.9038 89.0016 18.2176 88.7616 18.4866C88.5216 18.7406 88.2321 18.8676 87.8933 18.8676Z" fill="white"/>
<path d="M78.1432 33.4809C77.1408 33.4809 76.2443 33.2642 75.4537 32.8309C74.6772 32.3826 74.063 31.7326 73.6113 30.8809C73.1595 30.0291 72.9336 28.9832 72.9336 27.7429V22.0273C72.9336 21.7584 73.0183 21.5342 73.1877 21.3549C73.3571 21.1756 73.5689 21.0859 73.823 21.0859C74.0772 21.0859 74.2889 21.1756 74.4583 21.3549C74.6278 21.5342 74.7125 21.7584 74.7125 22.0273V27.7429C74.7125 28.6544 74.8748 29.4016 75.1995 29.9843C75.5243 30.5521 75.9619 30.9855 76.5125 31.2843C77.0631 31.5682 77.6843 31.7102 78.3761 31.7102C79.0397 31.7102 79.6397 31.5757 80.1762 31.3067C80.7127 31.0228 81.1362 30.6493 81.4468 30.186C81.7574 29.7079 81.9127 29.1625 81.9127 28.5498H83.1198C83.0916 29.4912 82.8586 30.3355 82.4209 31.0826C81.9833 31.8148 81.3903 32.3976 80.6421 32.8309C79.8938 33.2642 79.0608 33.4809 78.1432 33.4809ZM82.8021 33.3464C82.5339 33.3464 82.3151 33.2642 82.1456 33.0999C81.9903 32.9206 81.9127 32.6815 81.9127 32.3826V22.0273C81.9127 21.7434 81.9903 21.5193 82.1456 21.3549C82.3151 21.1756 82.5339 21.0859 82.8021 21.0859C83.0704 21.0859 83.2892 21.1756 83.4586 21.3549C83.628 21.5193 83.7128 21.7434 83.7128 22.0273V32.3826C83.7128 32.6815 83.628 32.9206 83.4586 33.0999C83.2892 33.2642 83.0704 33.3464 82.8021 33.3464Z" fill="white"/>
<path d="M64.7699 25.7488C64.7981 24.8373 65.0169 24.0229 65.4264 23.3056C65.8499 22.5734 66.4005 21.9981 67.0782 21.5797C67.77 21.1613 68.5253 20.9521 69.3441 20.9521C70.0642 20.9521 70.6077 21.0642 70.9748 21.2884C71.356 21.5125 71.4972 21.8188 71.3983 22.2073C71.356 22.4165 71.2642 22.566 71.123 22.6556C70.996 22.7453 70.8407 22.7901 70.6571 22.7901C70.4877 22.7901 70.2901 22.7752 70.0642 22.7453C69.2312 22.6407 68.49 22.7004 67.8406 22.9246C67.2053 23.1338 66.697 23.4849 66.3158 23.978C65.9346 24.4712 65.744 25.0614 65.744 25.7488H64.7699ZM64.8758 33.3471C64.5934 33.3471 64.3746 33.2649 64.2193 33.1006C64.064 32.9362 63.9863 32.7046 63.9863 32.4057V22.028C63.9863 21.7292 64.064 21.4976 64.2193 21.3332C64.3746 21.1688 64.5934 21.0866 64.8758 21.0866C65.1581 21.0866 65.3699 21.1688 65.5111 21.3332C65.6664 21.4976 65.744 21.7292 65.744 22.028V32.4057C65.744 32.7046 65.6664 32.9362 65.5111 33.1006C65.3699 33.2649 65.1581 33.3471 64.8758 33.3471Z" fill="white"/>
<path d="M57.4314 33.636C56.3161 33.636 55.3208 33.367 54.4455 32.8291C53.5701 32.2762 52.8784 31.5291 52.3701 30.5877C51.876 29.6463 51.6289 28.5854 51.6289 27.4049C51.6289 26.2095 51.8689 25.1411 52.3489 24.1997C52.8431 23.2583 53.5066 22.5186 54.3396 21.9807C55.1867 21.4278 56.1608 21.1514 57.262 21.1514C58.1091 21.1514 58.8927 21.3307 59.6127 21.6893C60.3327 22.033 60.968 22.556 61.5186 23.2583C61.688 23.4675 61.7445 23.6842 61.688 23.9083C61.6457 24.1175 61.5186 24.3043 61.3069 24.4686C61.1374 24.5882 60.9468 24.633 60.7351 24.6031C60.5374 24.5583 60.3539 24.4388 60.1845 24.2445C59.408 23.3181 58.4338 22.8548 57.262 22.8548C56.4855 22.8548 55.8008 23.0491 55.2078 23.4376C54.629 23.8261 54.1772 24.364 53.8525 25.0514C53.5278 25.7238 53.3654 26.5083 53.3654 27.4049C53.3654 28.2716 53.5348 29.0486 53.8737 29.736C54.2266 30.4084 54.7066 30.9463 55.3137 31.3498C55.9349 31.7383 56.6408 31.9325 57.4314 31.9325C57.9679 31.9325 58.4479 31.8578 58.8715 31.7084C59.3091 31.559 59.6974 31.3274 60.0362 31.0136C60.2339 30.8492 60.4315 30.7595 60.6292 30.7446C60.8268 30.7296 61.0104 30.7894 61.1798 30.9239C61.3633 31.1032 61.4692 31.3049 61.4974 31.5291C61.5257 31.7532 61.4551 31.9549 61.2857 32.1343C60.2551 33.1354 58.9703 33.636 57.4314 33.636Z" fill="white"/>
<path d="M48.6694 33.5248C48.4011 33.5248 48.1823 33.4426 48.0129 33.2783C47.8435 33.099 47.7588 32.8599 47.7588 32.561V22.2281C47.7588 21.9293 47.8435 21.6977 48.0129 21.5333C48.1823 21.354 48.4011 21.2643 48.6694 21.2643C48.9376 21.2643 49.1494 21.354 49.3047 21.5333C49.4741 21.6977 49.5588 21.9293 49.5588 22.2281V32.561C49.5588 32.8599 49.4741 33.099 49.3047 33.2783C49.1494 33.4426 48.9376 33.5248 48.6694 33.5248ZM48.6482 19.0453C48.3094 19.0453 48.0199 18.9183 47.7799 18.6643C47.5399 18.3953 47.4199 18.0815 47.4199 17.7229C47.4199 17.3493 47.5399 17.043 47.7799 16.8039C48.0341 16.5649 48.3235 16.4453 48.6482 16.4453C48.9729 16.4453 49.2553 16.5649 49.4953 16.8039C49.7494 17.043 49.8765 17.3493 49.8765 17.7229C49.8765 18.0815 49.7565 18.3953 49.5165 18.6643C49.2765 18.9183 48.987 19.0453 48.6482 19.0453Z" fill="white"/>
<path d="M43.8537 33.3471C43.1196 33.3471 42.4631 33.1603 41.8843 32.7867C41.3054 32.4131 40.8466 31.8976 40.5077 31.2401C40.183 30.5827 40.0207 29.843 40.0207 29.0211V23.3546V23.1711V21.5349V21.3171V18.1279C40.0207 17.8589 40.0983 17.6348 40.2536 17.4555C40.423 17.2762 40.6419 17.1865 40.9101 17.1865C41.1642 17.1865 41.376 17.2762 41.5454 17.4555C41.7148 17.6348 41.7996 17.8589 41.7996 18.1279V21.3171V21.5349V23.1711V23.3546V29.0211C41.7996 29.7235 41.9901 30.3062 42.3713 30.7694C42.7666 31.2327 43.2608 31.4643 43.8537 31.4643H44.489C44.7149 31.4643 44.9055 31.5539 45.0608 31.7332C45.2161 31.9126 45.2938 32.1367 45.2938 32.4057C45.2938 32.6896 45.195 32.9212 44.9973 33.1005C44.8138 33.2649 44.5738 33.3471 44.2773 33.3471H43.8537ZM38.7712 23.1711C38.5312 23.1711 38.3336 23.0964 38.1783 22.9469C38.023 22.7826 37.9453 22.5883 37.9453 22.3642C37.9453 22.1251 38.023 21.9308 38.1783 21.7814C38.3336 21.617 38.5312 21.5349 38.7712 21.5349H40.0207H41.3866H41.7996H44.002C44.242 21.5349 44.4396 21.617 44.5949 21.7814C44.7502 21.9308 44.8279 22.1251 44.8279 22.3642C44.8279 22.5883 44.7502 22.7826 44.5949 22.9469C44.4396 23.0964 44.242 23.1711 44.002 23.1711H41.7996H40.9101H40.0207H38.7712Z" fill="white"/>
<path d="M26.4497 38.5921C26.1673 38.5921 25.9414 38.5024 25.772 38.3231C25.6167 38.1587 25.5391 37.9271 25.5391 37.6283V27.1609C25.5532 25.9954 25.8144 24.9494 26.3226 24.0229C26.845 23.0815 27.5438 22.3419 28.4192 21.8039C29.2945 21.251 30.2827 20.9746 31.384 20.9746C32.5134 20.9746 33.5158 21.251 34.3911 21.8039C35.2805 22.3419 35.9794 23.0815 36.4876 24.0229C37.01 24.9643 37.2712 26.0327 37.2712 27.2281C37.2712 28.4086 37.0241 29.4695 36.53 30.4109C36.05 31.3523 35.3864 32.0995 34.5393 32.6523C33.6923 33.1903 32.7322 33.4592 31.6593 33.4592C30.7416 33.4592 29.9086 33.2575 29.1604 32.8541C28.4121 32.4357 27.805 31.8903 27.3391 31.2178V37.6283C27.3391 37.9271 27.2544 38.1587 27.085 38.3231C26.9156 38.5024 26.7038 38.5921 26.4497 38.5921ZM31.384 31.7558C32.1746 31.7558 32.8805 31.5615 33.5017 31.173C34.137 30.7696 34.6311 30.2241 34.9841 29.5368C35.3511 28.8494 35.5347 28.0799 35.5347 27.2281C35.5347 26.3615 35.3511 25.5919 34.9841 24.9195C34.6311 24.2321 34.137 23.6867 33.5017 23.2833C32.8805 22.8798 32.1746 22.6781 31.384 22.6781C30.6216 22.6781 29.9227 22.8798 29.2874 23.2833C28.6662 23.6867 28.1791 24.2321 27.8262 24.9195C27.4732 25.5919 27.2968 26.3615 27.2968 27.2281C27.2968 28.0799 27.4732 28.8494 27.8262 29.5368C28.1791 30.2241 28.6662 30.7696 29.2874 31.173C29.9086 31.5615 30.6075 31.7558 31.384 31.7558Z" fill="white"/>
</svg>
