<svg width="43" height="42" viewBox="0 0 43 42" fill="none" xmlns="http://www.w3.org/2000/svg">
<g id="ph:sun-bold">
<path id="Vector" d="M19.6982 5.90625V3.28125C19.6982 2.75911 19.9057 2.25835 20.2749 1.88913C20.6441 1.51992 21.1448 1.3125 21.667 1.3125C22.1891 1.3125 22.6899 1.51992 23.0591 1.88913C23.4283 2.25835 23.6357 2.75911 23.6357 3.28125V5.90625C23.6357 6.42839 23.4283 6.92915 23.0591 7.29837C22.6899 7.66758 22.1891 7.875 21.667 7.875C21.1448 7.875 20.6441 7.66758 20.2749 7.29837C19.9057 6.92915 19.6982 6.42839 19.6982 5.90625ZM32.8232 21C32.8232 23.2065 32.1689 25.3634 30.9431 27.1981C29.7172 29.0327 27.9748 30.4626 25.9363 31.307C23.8978 32.1514 21.6546 32.3724 19.4905 31.9419C17.3264 31.5114 15.3386 30.4489 13.7783 28.8887C12.2181 27.3284 11.1556 25.3406 10.7251 23.1765C10.2946 21.0124 10.5156 18.7692 11.36 16.7307C12.2044 14.6921 13.6343 12.9498 15.4689 11.7239C17.3035 10.4981 19.4605 9.84375 21.667 9.84375C24.6249 9.84679 27.4608 11.0232 29.5523 13.1147C31.6438 15.2062 32.8202 18.0421 32.8232 21ZM28.8857 21C28.8857 19.5723 28.4624 18.1766 27.6692 16.9895C26.876 15.8024 25.7485 14.8771 24.4295 14.3307C23.1104 13.7844 21.659 13.6414 20.2587 13.92C18.8584 14.1985 17.5721 14.886 16.5626 15.8956C15.553 16.9051 14.8655 18.1914 14.5869 19.5917C14.3084 20.992 14.4514 22.4434 14.9977 23.7625C15.5441 25.0816 16.4694 26.209 17.6565 27.0022C18.8436 27.7954 20.2393 28.2188 21.667 28.2188C23.5809 28.2166 25.4157 27.4553 26.769 26.102C28.1223 24.7487 28.8836 22.9139 28.8857 21ZM9.11785 11.2366C9.30098 11.4198 9.51839 11.565 9.75767 11.6642C9.99694 11.7633 10.2534 11.8143 10.5124 11.8143C10.7714 11.8143 11.0278 11.7633 11.2671 11.6642C11.5064 11.565 11.7238 11.4198 11.9069 11.2366C12.09 11.0535 12.2353 10.8361 12.3344 10.5968C12.4335 10.3575 12.4845 10.1011 12.4845 9.84211C12.4845 9.58312 12.4335 9.32667 12.3344 9.08739C12.2353 8.84812 12.09 8.63071 11.9069 8.44758L9.93816 6.47883C9.56831 6.10898 9.06668 5.90119 8.54363 5.90119C8.02058 5.90119 7.51895 6.10898 7.1491 6.47883C6.77925 6.84868 6.57147 7.35031 6.57147 7.87336C6.57147 8.39641 6.77925 8.89804 7.1491 9.26789L9.11785 11.2366ZM9.11785 30.7601L7.1491 32.7288C6.96597 32.912 6.8207 33.1294 6.72159 33.3686C6.62248 33.6079 6.57147 33.8644 6.57147 34.1234C6.57147 34.3823 6.62248 34.6388 6.72159 34.8781C6.8207 35.1173 6.96597 35.3348 7.1491 35.5179C7.51895 35.8877 8.02058 36.0955 8.54363 36.0955C8.80262 36.0955 9.05907 36.0445 9.29835 35.9454C9.53762 35.8463 9.75503 35.701 9.93816 35.5179L11.9069 33.5491C12.2768 33.1793 12.4845 32.6777 12.4845 32.1546C12.4845 31.6316 12.2768 31.1299 11.9069 30.7601C11.5371 30.3902 11.0354 30.1824 10.5124 30.1824C9.98933 30.1824 9.4877 30.3902 9.11785 30.7601ZM32.8232 11.8125C33.0819 11.8127 33.338 11.762 33.577 11.6631C33.816 11.5643 34.0332 11.4194 34.2161 11.2366L36.1849 9.26789C36.368 9.08476 36.5133 8.86735 36.6124 8.62807C36.7115 8.3888 36.7625 8.13235 36.7625 7.87336C36.7625 7.61437 36.7115 7.35792 36.6124 7.11864C36.5133 6.87937 36.368 6.66196 36.1849 6.47883C36.0018 6.2957 35.7843 6.15043 35.5451 6.05132C35.3058 5.95221 35.0493 5.90119 34.7904 5.90119C34.5314 5.90119 34.2749 5.95221 34.0356 6.05132C33.7964 6.15043 33.579 6.2957 33.3958 6.47883L31.4271 8.44758C31.1501 8.72294 30.9613 9.07446 30.8846 9.45744C30.808 9.84041 30.847 10.2375 30.9967 10.5983C31.1464 10.959 31.3999 11.2671 31.7252 11.4833C32.0505 11.6995 32.4327 11.8141 32.8232 11.8125ZM34.2161 30.7634C33.8463 30.3935 33.3447 30.1857 32.8216 30.1857C32.2986 30.1857 31.7969 30.3935 31.4271 30.7634C31.0572 31.1332 30.8494 31.6348 30.8494 32.1579C30.8494 32.6809 31.0572 33.1826 31.4271 33.5524L33.3958 35.5212C33.7657 35.891 34.2673 36.0988 34.7904 36.0988C35.3134 36.0988 35.815 35.891 36.1849 35.5212C36.5547 35.1513 36.7625 34.6497 36.7625 34.1266C36.7625 33.6036 36.5547 33.102 36.1849 32.7321L34.2161 30.7634ZM8.54199 21C8.54199 20.4779 8.33457 19.9771 7.96536 19.6079C7.59615 19.2387 7.09539 19.0312 6.57324 19.0312H3.94824C3.4261 19.0312 2.92534 19.2387 2.55613 19.6079C2.18691 19.9771 1.97949 20.4779 1.97949 21C1.97949 21.5221 2.18691 22.0229 2.55613 22.3921C2.92534 22.7613 3.4261 22.9688 3.94824 22.9688H6.57324C7.09539 22.9688 7.59615 22.7613 7.96536 22.3921C8.33457 22.0229 8.54199 21.5221 8.54199 21ZM21.667 34.125C21.1448 34.125 20.6441 34.3324 20.2749 34.7016C19.9057 35.0708 19.6982 35.5716 19.6982 36.0938V38.7188C19.6982 39.2409 19.9057 39.7417 20.2749 40.1109C20.6441 40.4801 21.1448 40.6875 21.667 40.6875C22.1891 40.6875 22.6899 40.4801 23.0591 40.1109C23.4283 39.7417 23.6357 39.2409 23.6357 38.7188V36.0938C23.6357 35.5716 23.4283 35.0708 23.0591 34.7016C22.6899 34.3324 22.1891 34.125 21.667 34.125ZM39.3857 19.0312H36.7607C36.2386 19.0312 35.7378 19.2387 35.3686 19.6079C34.9994 19.9771 34.792 20.4779 34.792 21C34.792 21.5221 34.9994 22.0229 35.3686 22.3921C35.7378 22.7613 36.2386 22.9688 36.7607 22.9688H39.3857C39.9079 22.9688 40.4086 22.7613 40.7779 22.3921C41.1471 22.0229 41.3545 21.5221 41.3545 21C41.3545 20.4779 41.1471 19.9771 40.7779 19.6079C40.4086 19.2387 39.9079 19.0312 39.3857 19.0312Z" fill="#001AA3"/>
</g>
</svg>
