<svg width="25" height="25" viewBox="0 0 25 25" fill="none" xmlns="http://www.w3.org/2000/svg">
<g id="Social Icons" clip-path="url(#clip0_158_1742)">
<path id="Vector" d="M18.406 11.6538C18.3026 11.6043 18.1976 11.5566 18.0912 11.5109C17.906 8.09755 16.0409 6.1434 12.9091 6.1234C12.8949 6.12331 12.8808 6.12331 12.8666 6.12331C10.9934 6.12331 9.4355 6.92289 8.47662 8.37786L10.199 9.55937C10.9153 8.47256 12.0395 8.24087 12.8674 8.24087C12.877 8.24087 12.8866 8.24087 12.8961 8.24096C13.9272 8.24754 14.7054 8.54735 15.209 9.13202C15.5755 9.55769 15.8206 10.1459 15.942 10.8882C15.0277 10.7329 14.039 10.6851 12.982 10.7457C10.0045 10.9172 8.09025 12.6538 8.21882 15.0668C8.28405 16.2908 8.89383 17.3438 9.93574 18.0316C10.8167 18.6131 11.9512 18.8975 13.1304 18.8331C14.6876 18.7478 15.9092 18.1536 16.7615 17.0673C17.4087 16.2423 17.8181 15.1731 17.9989 13.826C18.741 14.2739 19.291 14.8633 19.5947 15.5718C20.1112 16.7761 20.1414 18.7553 18.5265 20.3688C17.1116 21.7823 15.4109 22.3938 12.8406 22.4126C9.98939 22.3915 7.83309 21.4771 6.43113 19.6949C5.1183 18.026 4.43983 15.6155 4.41452 12.5303C4.43983 9.445 5.1183 7.03447 6.43113 5.36561C7.83309 3.58339 9.98935 2.66902 12.8405 2.64784C15.7124 2.66919 17.9062 3.58795 19.3619 5.37877C20.0756 6.25697 20.6137 7.36137 20.9685 8.64906L22.9869 8.11055C22.5569 6.52555 21.8802 5.15974 20.9595 4.02702C19.0934 1.73111 16.3641 0.554667 12.8476 0.530273H12.8335C9.32407 0.554582 6.62538 1.7355 4.8124 4.04019C3.1991 6.09107 2.36692 8.94474 2.33895 12.5218L2.33887 12.5303L2.33895 12.5387C2.36692 16.1158 3.1991 18.9695 4.8124 21.0204C6.62538 23.325 9.32407 24.506 12.8335 24.5303H12.8476C15.9676 24.5086 18.1669 23.6918 19.9786 21.8816C22.349 19.5135 22.2776 16.5451 21.4964 14.7229C20.9359 13.4161 19.8672 12.3548 18.406 11.6538ZM13.0189 16.7186C11.7139 16.7921 10.3582 16.2064 10.2913 14.9518C10.2418 14.0215 10.9533 12.9835 13.099 12.8599C13.3447 12.8457 13.5859 12.8388 13.8227 12.8388C14.6021 12.8388 15.3312 12.9145 15.9941 13.0594C15.7469 16.1471 14.2966 16.6485 13.0189 16.7186Z" fill="#001AA3"/>
</g>
<defs>
<clipPath id="clip0_158_1742">
<rect width="24" height="24" fill="white" transform="translate(0.713867 0.530273)"/>
</clipPath>
</defs>
</svg>
