<svg width="25" height="25" viewBox="0 0 25 25" fill="none" xmlns="http://www.w3.org/2000/svg">
<g id="Social Icons" clip-path="url(#clip0_158_1743)">
<path id="Vector" d="M17.2151 0.530273H13.1704V16.8781C13.1704 18.8259 11.6148 20.4259 9.67884 20.4259C7.74291 20.4259 6.18727 18.8259 6.18727 16.8781C6.18727 14.9651 7.70835 13.3998 9.57515 13.3303V9.22594C5.4613 9.29547 2.14258 12.6694 2.14258 16.8781C2.14258 21.1216 5.53043 24.5303 9.71343 24.5303C13.8964 24.5303 17.2842 21.0868 17.2842 16.8781V8.49547C18.8053 9.60854 20.6721 10.2694 22.6426 10.3042V6.19984C19.6004 6.09549 17.2151 3.59114 17.2151 0.530273Z" fill="#001AA3"/>
</g>
<defs>
<clipPath id="clip0_158_1743">
<rect width="24" height="24" fill="white" transform="translate(0.142578 0.530273)"/>
</clipPath>
</defs>
</svg>
