<svg width="24" height="25" viewBox="0 0 24 25" fill="none" xmlns="http://www.w3.org/2000/svg">
<g id="Social Icons">
<path id="Vector" d="M23.7609 7.73008C23.7609 7.73008 23.5266 6.07539 22.8047 5.34883C21.8906 4.39258 20.8688 4.38789 20.4 4.33164C17.0438 4.08789 12.0047 4.08789 12.0047 4.08789H11.9953C11.9953 4.08789 6.95625 4.08789 3.6 4.33164C3.13125 4.38789 2.10938 4.39258 1.19531 5.34883C0.473438 6.07539 0.24375 7.73008 0.24375 7.73008C0.24375 7.73008 0 9.67539 0 11.616V13.4348C0 15.3754 0.239062 17.3207 0.239062 17.3207C0.239062 17.3207 0.473437 18.9754 1.19062 19.702C2.10469 20.6582 3.30469 20.6254 3.83906 20.7285C5.76094 20.9113 12 20.9676 12 20.9676C12 20.9676 17.0438 20.9582 20.4 20.7191C20.8688 20.6629 21.8906 20.6582 22.8047 19.702C23.5266 18.9754 23.7609 17.3207 23.7609 17.3207C23.7609 17.3207 24 15.3801 24 13.4348V11.616C24 9.67539 23.7609 7.73008 23.7609 7.73008ZM9.52031 15.6426V8.89727L16.0031 12.2816L9.52031 15.6426Z" fill="#001AA3"/>
</g>
</svg>
